<?xml version="1.0" encoding="UTF-8" standalone="no"?>
<!-- Created with Inkscape (http://www.inkscape.org/) -->
<svg
   xmlns:dc="http://purl.org/dc/elements/1.1/"
   xmlns:cc="http://creativecommons.org/ns#"
   xmlns:rdf="http://www.w3.org/1999/02/22-rdf-syntax-ns#"
   xmlns:svg="http://www.w3.org/2000/svg"
   xmlns="http://www.w3.org/2000/svg"
   xmlns:sodipodi="http://sodipodi.sourceforge.net/DTD/sodipodi-0.dtd"
   xmlns:inkscape="http://www.inkscape.org/namespaces/inkscape"
   width="17.192728"
   height="24"
   id="svg2"
   sodipodi:version="0.32"
   inkscape:version="0.46"
   version="1.0"
   sodipodi:docname="U+2135.svg"
   inkscape:output_extension="org.inkscape.output.svg.inkscape">
  <defs
     id="defs4">
    <inkscape:perspective
       sodipodi:type="inkscape:persp3d"
       inkscape:vp_x="0 : 526.18109 : 1"
       inkscape:vp_y="0 : 1000 : 0"
       inkscape:vp_z="744.09448 : 526.18109 : 1"
       inkscape:persp3d-origin="372.04724 : 350.78739 : 1"
       id="perspective10" />
  </defs>
  <sodipodi:namedview
     id="base"
     pagecolor="#ffffff"
     bordercolor="#666666"
     borderopacity="1.0"
     gridtolerance="10000"
     guidetolerance="10"
     objecttolerance="10"
     inkscape:pageopacity="0.0"
     inkscape:pageshadow="2"
     inkscape:zoom="13.571121"
     inkscape:cx="9.6160075"
     inkscape:cy="13.209519"
     inkscape:document-units="px"
     inkscape:current-layer="layer1"
     showgrid="false"
     inkscape:window-width="799"
     inkscape:window-height="669"
     inkscape:window-x="326"
     inkscape:window-y="208" />
  <metadata
     id="metadata7">
    <rdf:RDF>
      <cc:Work
         rdf:about="">
        <dc:format>image/svg+xml</dc:format>
        <dc:type
           rdf:resource="http://purl.org/dc/dcmitype/StillImage" />
      </cc:Work>
    </rdf:RDF>
  </metadata>
  <g
     inkscape:label="Layer 1"
     inkscape:groupmode="layer"
     id="layer1"
     transform="translate(-165.53937,-601.20962)">
    <path
       style="font-size:33.99088287px;font-style:normal;font-variant:normal;font-weight:normal;font-stretch:normal;text-align:start;line-height:100%;writing-mode:lr-tb;text-anchor:start;fill:#ffffff;fill-opacity:1;stroke:none;stroke-width:1px;stroke-linecap:butt;stroke-linejoin:miter;stroke-opacity:1;font-family:Cambria Math;-inkscape-font-specification:Cambria Math"
       d="M 180.0858,624.62013 C 180.00833,623.92305 179.83129,623.27576 179.55469,622.67827 C 179.27806,622.08077 178.82993,621.43349 178.21032,620.7364 L 170.72503,612.27188 C 169.98368,612.65916 169.43321,613.09621 169.07361,613.58305 C 168.71401,614.06991 168.5342,614.57889 168.53421,615.10998 C 168.5342,615.63003 168.63655,616.15561 168.84126,616.68671 C 169.04595,617.21782 169.38619,617.87064 169.86198,618.64517 C 170.35988,619.47503 170.70289,620.16104 170.891,620.70321 C 171.07909,621.24539 171.17314,621.78756 171.17315,622.32973 C 171.17314,623.17065 171.04036,623.79581 170.77482,624.2052 L 166.32679,624.2052 L 166.32679,623.39194 C 166.76938,623.31449 167.07366,623.19831 167.23963,623.0434 C 167.4056,622.8885 167.48859,622.65614 167.48859,622.34632 C 167.48859,621.84841 167.23963,620.98536 166.74172,619.75717 C 166.22168,618.44048 165.96165,617.34507 165.96166,616.47095 C 165.96165,614.41291 167.25623,612.65362 169.84538,611.19307 L 167.53838,608.6703 C 166.99621,608.07282 166.60064,607.48916 166.35169,606.91931 C 166.10273,606.34949 165.97825,605.77136 165.97825,605.18491 C 165.97825,604.67595 166.09166,604.11165 166.31849,603.49201 C 166.54532,602.8724 166.83577,602.3081 167.18984,601.7991 L 168.20227,601.7991 C 168.24652,602.62898 168.40696,603.33712 168.68358,603.92353 C 168.9602,604.50998 169.38619,605.13514 169.96156,605.799 L 176.20207,612.98555 C 176.44549,611.83483 176.76636,610.74219 177.16471,609.70762 C 177.56302,608.67309 177.98901,607.8128 178.44268,607.12677 C 177.66814,606.92763 177.0983,606.73123 176.73318,606.53758 C 176.36803,606.34396 176.08865,606.1033 175.89503,605.8156 C 175.70138,605.52794 175.60457,605.15727 175.60458,604.7036 C 175.60457,603.59714 175.82033,602.62898 176.25187,601.7991 L 177.24769,601.7991 C 177.31407,602.37449 177.4745,602.78942 177.72901,603.04388 C 177.98348,603.29839 178.37075,603.48649 178.89081,603.60819 L 180.10239,603.89034 C 180.69987,604.02313 181.15353,604.18634 181.46336,604.37995 C 181.77315,604.5736 181.98891,604.79213 182.11065,605.03554 C 182.23234,605.27898 182.29319,605.63305 182.29321,606.09775 C 182.29319,606.55142 182.24894,606.95529 182.16044,607.30934 C 181.6957,607.43107 181.20885,607.49193 180.69989,607.49191 C 180.48964,607.49193 180.26835,607.47533 180.03601,607.44212 C 179.38317,608.48222 178.87696,609.52507 178.51737,610.57067 C 178.15775,611.6163 177.97795,612.49318 177.97796,613.20132 C 177.97795,613.82095 178.05264,614.33823 178.20203,614.75315 C 178.35138,615.16808 178.61417,615.58024 178.99039,615.98963 L 180.81607,618.06427 C 181.38035,618.70603 181.77039,619.27863 181.98617,619.78207 C 182.20191,620.28552 182.30979,620.86918 182.30981,621.53307 C 182.30979,621.98672 182.22127,622.45144 182.04426,622.92722 C 181.8672,623.40301 181.55186,623.96731 181.09822,624.62013 L 180.0858,624.62013 z"
       id="text2712" />
  </g>
</svg>
